<svg id="Layer_1" data-name="Layer 1" xmlns="http://www.w3.org/2000/svg" viewBox="0 0 360.61 80.74"><defs><style>.cls-1{fill:#fff;}</style></defs><path class="cls-1" d="M57.63,29.7H46.83V58h-8.2V29.7H27.78V22.5H57.63Z"/><path class="cls-1" d="M70.43,58.5a15.59,15.59,0,0,1-6-1.07,13,13,0,0,1-4.42-2.89,12.3,12.3,0,0,1-2.78-4.23,13.52,13.52,0,0,1-1-5A14,14,0,0,1,58,38.49a12.93,12.93,0,0,1,4.82-5,14.5,14.5,0,0,1,7.6-1.89A14.49,14.49,0,0,1,78,33.52a12.78,12.78,0,0,1,4.77,4.89A13.53,13.53,0,0,1,84.43,45a12,12,0,0,1-.07,1.35c0,.44-.1.83-.13,1.16H64.83a5.71,5.71,0,0,0,1,2.86,5.31,5.31,0,0,0,2.12,1.78,6.49,6.49,0,0,0,2.75.61,7.09,7.09,0,0,0,3.38-.85,4.63,4.63,0,0,0,2.17-2.3L83,51.5a11.5,11.5,0,0,1-2.82,3.62,13.69,13.69,0,0,1-4.3,2.48A16,16,0,0,1,70.43,58.5Zm-5.8-15.9H76a6.52,6.52,0,0,0-1-2.75,5.13,5.13,0,0,0-2-1.81,5.89,5.89,0,0,0-2.75-.64,5.83,5.83,0,0,0-2.77.64,5.15,5.15,0,0,0-2,1.81A6.52,6.52,0,0,0,64.63,42.6Z"/><path class="cls-1" d="M99.63,58.5a20.1,20.1,0,0,1-6.55-1.1,14.38,14.38,0,0,1-5.4-3.25l2.75-5a21.56,21.56,0,0,0,4.68,2.65,11.61,11.61,0,0,0,4.27.9,5,5,0,0,0,2.4-.48,1.55,1.55,0,0,0,.85-1.46,1.45,1.45,0,0,0-.5-1.16,5,5,0,0,0-1.52-.76c-.69-.23-1.53-.48-2.53-.74a44.75,44.75,0,0,1-5-1.92,7.7,7.7,0,0,1-3-2.29,5.76,5.76,0,0,1-1-3.52,7.87,7.87,0,0,1,1.33-4.56,8.62,8.62,0,0,1,3.77-3A14.41,14.41,0,0,1,100,31.65a16.57,16.57,0,0,1,5.27.85,13.52,13.52,0,0,1,4.83,2.85l-3.1,5a20.31,20.31,0,0,0-4-2.25,9.07,9.07,0,0,0-3.4-.7,5.77,5.77,0,0,0-1.55.19,2.36,2.36,0,0,0-1.13.66,1.76,1.76,0,0,0-.42,1.21A1.65,1.65,0,0,0,97,40.64a3.66,3.66,0,0,0,1.35.76l2.33.76a41.14,41.14,0,0,1,5.4,1.89,8,8,0,0,1,3.22,2.35,5.91,5.91,0,0,1,1.08,3.71,7.34,7.34,0,0,1-2.88,6.15A12.41,12.41,0,0,1,99.63,58.5Z"/><path class="cls-1" d="M132.73,56.6q-1.09.45-2.43.9a19.7,19.7,0,0,1-2.77.72,15.63,15.63,0,0,1-2.85.28,10,10,0,0,1-3.68-.67,5.46,5.46,0,0,1-2.65-2.19,7.44,7.44,0,0,1-1-4V38.1H114V32.05h3.35V23.7h8v8.35h5.35V38.1h-5.35V48.8a2.3,2.3,0,0,0,.65,1.83,2.4,2.4,0,0,0,1.65.57,6.17,6.17,0,0,0,1.82-.3,11.61,11.61,0,0,0,1.68-.65Z"/><path class="cls-1" d="M176.83,58l-16.3-17.38q-2.1-2.22-3.35-3.81a11.48,11.48,0,0,1-1.78-2.93,8.75,8.75,0,0,1,.78-7.56,8.51,8.51,0,0,1,3.57-3,12,12,0,0,1,5.13-1.06,13.19,13.19,0,0,1,4.8.86,8.8,8.8,0,0,1,3.7,2.64,7,7,0,0,1,1.45,4.55,8.49,8.49,0,0,1-1.13,4.32,13.56,13.56,0,0,1-3,3.58,33.05,33.05,0,0,1-4.32,3.06c-1.17.69-2.21,1.35-3.13,2a9.5,9.5,0,0,0-2.15,2,3.72,3.72,0,0,0-.77,2.26,4.12,4.12,0,0,0,.62,2.08,4.94,4.94,0,0,0,1.85,1.74,5.88,5.88,0,0,0,2.93.69,8.27,8.27,0,0,0,3.8-1A11.54,11.54,0,0,0,173,48.2a14,14,0,0,0,2.5-4.5,18.08,18.08,0,0,0,.93-6h6.45a23.81,23.81,0,0,1-1.55,8.9,19.44,19.44,0,0,1-4.13,6.45,17.23,17.23,0,0,1-5.77,3.9,17.42,17.42,0,0,1-6.55,1.3,13.15,13.15,0,0,1-6.6-1.56,10.9,10.9,0,0,1-4.18-4,10.18,10.18,0,0,1-1.42-5.21,9.09,9.09,0,0,1,1.3-4.91,14.31,14.31,0,0,1,3.27-3.68,36.85,36.85,0,0,1,3.93-2.77c1.43-.91,2.61-1.65,3.55-2.22a10,10,0,0,0,2.1-1.64,2.69,2.69,0,0,0,.7-1.81,2.17,2.17,0,0,0-.73-1.72,2.75,2.75,0,0,0-1.87-.63,2.91,2.91,0,0,0-1.45.36,2.59,2.59,0,0,0-1,.93,2.64,2.64,0,0,0-.32,1.3,2.26,2.26,0,0,0,.42,1.3A11.94,11.94,0,0,0,164,33.58c.69.65,1.63,1.62,2.83,2.89L187.33,58Z"/><path class="cls-1" d="M227.83,29.7H217V58h-8.2V29.7H198V22.5h29.85Z"/><path class="cls-1" d="M229.93,48.66V32.05h8V46.87a5.87,5.87,0,0,0,.95,3.62,3.17,3.17,0,0,0,2.7,1.26,6.19,6.19,0,0,0,2.1-.37,6.52,6.52,0,0,0,1.95-1.18,8.15,8.15,0,0,0,1.7-2.14v-16h8V49.13a2.71,2.71,0,0,0,.37,1.65,1.9,1.9,0,0,0,1.33.57V58c-.74.13-1.38.23-1.93.3a14,14,0,0,1-1.47.1,5.76,5.76,0,0,1-3.35-.87,3.66,3.66,0,0,1-1.55-2.45l-.15-1.58a10.77,10.77,0,0,1-4.48,3.78,14.25,14.25,0,0,1-6,1.22A7.48,7.48,0,0,1,232,56Q229.93,53.45,229.93,48.66Z"/><path class="cls-1" d="M279.88,56.6c-.74.3-1.54.6-2.43.9a20.06,20.06,0,0,1-2.77.72,15.63,15.63,0,0,1-2.85.28,10,10,0,0,1-3.68-.67,5.46,5.46,0,0,1-2.65-2.19,7.44,7.44,0,0,1-1-4V38.1h-3.35V32.05h3.35V23.7h8v8.35h5.35V38.1h-5.35V48.8a2.27,2.27,0,0,0,.65,1.83,2.4,2.4,0,0,0,1.65.57,6.23,6.23,0,0,0,1.82-.3,11.61,11.61,0,0,0,1.68-.65Z"/><path class="cls-1" d="M296.68,58.5a15.59,15.59,0,0,1-6-1.09,12.89,12.89,0,0,1-4.42-2.95,12.75,12.75,0,0,1-2.73-4.29,14.19,14.19,0,0,1-.92-5.07,14.36,14.36,0,0,1,.92-5.13,12.62,12.62,0,0,1,2.73-4.28,12.77,12.77,0,0,1,4.42-3,15.59,15.59,0,0,1,6-1.08,15.44,15.44,0,0,1,5.95,1.08A12.84,12.84,0,0,1,309.78,40a14,14,0,0,1,1,5.13,13.79,13.79,0,0,1-1,5.07,12.76,12.76,0,0,1-7.15,7.24A15.43,15.43,0,0,1,296.68,58.5Zm-5.85-13.4a7.6,7.6,0,0,0,.77,3.49,5.9,5.9,0,0,0,2.08,2.33,5.72,5.72,0,0,0,6,0,5.83,5.83,0,0,0,2.08-2.36,7.6,7.6,0,0,0,.75-3.44,7.74,7.74,0,0,0-.75-3.5,5.68,5.68,0,0,0-2.08-2.33,5.84,5.84,0,0,0-6,0,5.9,5.9,0,0,0-2.08,2.33A7.62,7.62,0,0,0,290.83,45.1Z"/><path class="cls-1" d="M332.83,38.6a14.31,14.31,0,0,0-5.25.92,6.53,6.53,0,0,0-3.4,2.73V58h-8V32.05h7.35v5A11,11,0,0,1,327,32.9a8,8,0,0,1,4.5-1.55h.82a1.77,1.77,0,0,1,.48,0Z"/></svg>