<svg id="Layer_1" data-name="Layer 1" xmlns="http://www.w3.org/2000/svg" viewBox="0 0 308.92 40.37"><path d="M31.79,9.65H21V38h-8.2V9.65H1.94V2.45H31.79Z"/><path d="M44.59,38.45a15.55,15.55,0,0,1-6-1.07,13.09,13.09,0,0,1-4.43-2.89,12.28,12.28,0,0,1-2.77-4.23,13.32,13.32,0,0,1-1-5,13.9,13.9,0,0,1,1.67-6.8,13,13,0,0,1,4.83-5,14.5,14.5,0,0,1,7.6-1.89,14.46,14.46,0,0,1,7.57,1.87,12.81,12.81,0,0,1,4.78,4.89,13.53,13.53,0,0,1,1.65,6.58,11.94,11.94,0,0,1-.08,1.35c0,.44-.09.83-.12,1.16H39a5.7,5.7,0,0,0,1,2.86,5.34,5.34,0,0,0,2.13,1.78,6.46,6.46,0,0,0,2.75.61,7.05,7.05,0,0,0,3.37-.85,4.66,4.66,0,0,0,2.18-2.3l6.8,1.9a11.39,11.39,0,0,1-2.83,3.62,13.69,13.69,0,0,1-4.3,2.48A15.89,15.89,0,0,1,44.59,38.45Zm-5.8-15.9h11.4a6.66,6.66,0,0,0-.95-2.75,5.13,5.13,0,0,0-2-1.81,6.29,6.29,0,0,0-5.53,0,5.12,5.12,0,0,0-2,1.81A6.52,6.52,0,0,0,38.79,22.55Z"/><path d="M73.78,38.45a20,20,0,0,1-6.54-1.1,14.34,14.34,0,0,1-5.41-3.25l2.75-5.05a21.8,21.8,0,0,0,4.68,2.65,11.66,11.66,0,0,0,4.27.9,5,5,0,0,0,2.41-.48,1.56,1.56,0,0,0,.84-1.46,1.42,1.42,0,0,0-.5-1.16,5,5,0,0,0-1.52-.76c-.68-.23-1.52-.48-2.52-.74a44.75,44.75,0,0,1-5-1.92,7.56,7.56,0,0,1-3-2.29,5.76,5.76,0,0,1-1-3.52,7.94,7.94,0,0,1,1.32-4.56,8.62,8.62,0,0,1,3.77-3,14.49,14.49,0,0,1,5.86-1.08,16.61,16.61,0,0,1,5.27.85,13.48,13.48,0,0,1,4.82,2.85l-3.09,5a20.6,20.6,0,0,0-4-2.25,9.08,9.08,0,0,0-3.41-.7,5.7,5.7,0,0,0-1.54.19,2.32,2.32,0,0,0-1.13.66,1.76,1.76,0,0,0-.42,1.21,1.65,1.65,0,0,0,.42,1.18,3.5,3.5,0,0,0,1.35.76l2.32.76A41.87,41.87,0,0,1,80.19,24a8.1,8.1,0,0,1,3.22,2.35,5.91,5.91,0,0,1,1.08,3.71,7.34,7.34,0,0,1-2.88,6.15A12.46,12.46,0,0,1,73.78,38.45Z"/><path d="M106.88,36.55c-.73.3-1.54.6-2.42.9a19.84,19.84,0,0,1-2.78.72,15.46,15.46,0,0,1-2.85.28,9.94,9.94,0,0,1-3.67-.67,5.42,5.42,0,0,1-2.65-2.19,7.43,7.43,0,0,1-1-4V18.05H88.18V12h3.35V3.65h8V12h5.35v6.05H99.53v10.7a2.3,2.3,0,0,0,.65,1.83,2.43,2.43,0,0,0,1.65.57,6.24,6.24,0,0,0,1.83-.3,11,11,0,0,0,1.67-.65Z"/><path d="M151,38l-16.3-17.38c-1.4-1.48-2.51-2.75-3.35-3.81a11.7,11.7,0,0,1-1.77-2.93,8.12,8.12,0,0,1-.53-2.94,8.19,8.19,0,0,1,1.3-4.62,8.54,8.54,0,0,1,3.58-3A11.9,11.9,0,0,1,139,2.2a13.19,13.19,0,0,1,4.8.86,8.73,8.73,0,0,1,3.7,2.64A7,7,0,0,1,149,10.25a8.49,8.49,0,0,1-1.12,4.32,13.75,13.75,0,0,1-3.05,3.58,33.18,33.18,0,0,1-4.33,3.06c-1.16.69-2.2,1.35-3.12,2a9.06,9.06,0,0,0-2.15,2,3.67,3.67,0,0,0-.78,2.26,4,4,0,0,0,.63,2.08,4.87,4.87,0,0,0,1.85,1.74,5.87,5.87,0,0,0,2.92.69,8.24,8.24,0,0,0,3.8-1,11.45,11.45,0,0,0,3.48-2.82,14.16,14.16,0,0,0,2.5-4.5,18.09,18.09,0,0,0,.92-6H157a23.61,23.61,0,0,1-1.55,8.9A19.26,19.26,0,0,1,151.31,33,17.28,17.28,0,0,1,139,38.2a13.21,13.21,0,0,1-6.6-1.56,10.94,10.94,0,0,1-4.17-4,10.19,10.19,0,0,1-1.43-5.21,9.18,9.18,0,0,1,1.3-4.91,14.35,14.35,0,0,1,3.28-3.68,35.78,35.78,0,0,1,3.92-2.77c1.44-.91,2.62-1.65,3.55-2.22a9.17,9.17,0,0,0,2.1-1.64,2.64,2.64,0,0,0,.7-1.81,2.19,2.19,0,0,0-.72-1.72A2.77,2.77,0,0,0,139,8.05a3,3,0,0,0-1.45.36,2.44,2.44,0,0,0-1.3,2.23,2.2,2.2,0,0,0,.43,1.3,11.28,11.28,0,0,0,1.45,1.59c.68.65,1.62,1.62,2.82,2.89L161.48,38Z"/><path d="M202,9.65h-10.8V38H183V9.65H172.13V2.45H202Z"/><path d="M204.08,28.61V12h8V26.82a5.94,5.94,0,0,0,.95,3.62,3.2,3.2,0,0,0,2.7,1.26,6,6,0,0,0,4.05-1.55,8,8,0,0,0,1.7-2.14V12h8V29.08a2.7,2.7,0,0,0,.38,1.65,1.9,1.9,0,0,0,1.32.57V38q-1.1.19-1.92.3a14,14,0,0,1-1.48.1,5.78,5.78,0,0,1-3.35-.87A3.7,3.7,0,0,1,222.88,35l-.15-1.58a10.9,10.9,0,0,1-4.47,3.79,14.49,14.49,0,0,1-6,1.21,7.5,7.5,0,0,1-6.1-2.52Q204.08,33.4,204.08,28.61Z"/><path d="M254,36.55c-.73.3-1.54.6-2.42.9a20.2,20.2,0,0,1-2.78.72,15.46,15.46,0,0,1-2.85.28,9.9,9.9,0,0,1-3.67-.67,5.42,5.42,0,0,1-2.65-2.19,7.43,7.43,0,0,1-1-4V18.05h-3.35V12h3.35V3.65h8V12H252v6.05h-5.35v10.7a2.3,2.3,0,0,0,.65,1.83,2.43,2.43,0,0,0,1.65.57,6.24,6.24,0,0,0,1.83-.3,11,11,0,0,0,1.67-.65Z"/><path d="M270.83,38.45a15.57,15.57,0,0,1-6-1.09,12.79,12.79,0,0,1-4.43-3,12.58,12.58,0,0,1-2.72-4.29,14,14,0,0,1-.93-5.07,14.15,14.15,0,0,1,.93-5.13,12.44,12.44,0,0,1,2.72-4.28,12.81,12.81,0,0,1,4.43-3,15.57,15.57,0,0,1,6-1.08,15.36,15.36,0,0,1,5.95,1.08,12.84,12.84,0,0,1,7.15,7.24,13.75,13.75,0,0,1,.95,5.13,13.59,13.59,0,0,1-.95,5.07,13,13,0,0,1-2.75,4.29,12.76,12.76,0,0,1-4.4,3A15.36,15.36,0,0,1,270.83,38.45ZM265,25.05a7.48,7.48,0,0,0,.78,3.49,5.88,5.88,0,0,0,2.07,2.33,5.74,5.74,0,0,0,6,0,5.81,5.81,0,0,0,2.07-2.36,7.6,7.6,0,0,0,.75-3.44,7.74,7.74,0,0,0-.75-3.5,5.66,5.66,0,0,0-2.07-2.33,5.86,5.86,0,0,0-6,0,5.88,5.88,0,0,0-2.07,2.33A7.49,7.49,0,0,0,265,25.05Z"/><path d="M307,18.55a14.39,14.39,0,0,0-5.25.92,6.53,6.53,0,0,0-3.4,2.73V38h-8V12h7.35v5a11.05,11.05,0,0,1,3.5-4.15,8,8,0,0,1,4.5-1.55h.83a1.65,1.65,0,0,1,.47,0Z"/></svg>